<?xml version="1.0" encoding="UTF-8" standalone="no"?>
<!-- Created with Inkscape (http://www.inkscape.org/) -->

<svg
   width="512"
   height="512"
   viewBox="0 0 512 512"
   version="1.1"
   id="svg1"
   sodipodi:docname="favicon.svg"
   inkscape:version="1.3 (1:1.3+202307231459+0e150ed6c4)"
   xmlns:inkscape="http://www.inkscape.org/namespaces/inkscape"
   xmlns:sodipodi="http://sodipodi.sourceforge.net/DTD/sodipodi-0.dtd"
   xmlns="http://www.w3.org/2000/svg"
   xmlns:svg="http://www.w3.org/2000/svg">
  <sodipodi:namedview
     id="namedview1"
     pagecolor="#ffffff"
     bordercolor="#000000"
     borderopacity="0.25"
     inkscape:showpageshadow="2"
     inkscape:pageopacity="0.0"
     inkscape:pagecheckerboard="0"
     inkscape:deskcolor="#d1d1d1"
     inkscape:document-units="px"
     inkscape:zoom="0.42218838"
     inkscape:cx="419.24413"
     inkscape:cy="641.89356"
     inkscape:window-width="1850"
     inkscape:window-height="1016"
     inkscape:window-x="0"
     inkscape:window-y="0"
     inkscape:window-maximized="1"
     inkscape:current-layer="layer1" />
  <defs
     id="defs1" />
  <g
     inkscape:label="Layer 1"
     inkscape:groupmode="layer"
     id="layer1">
    <path
       d="m 348.05438,403.10832 c 13.51474,-8.50477 25.75499,-18.87716 36.3614,-30.76808 l 38.23801,22.24079 34.817,-60.74152 -38.16134,-22.19254 c 4.85201,-14.91995 7.70605,-30.74557 8.24108,-47.15028 l 43.41424,-7.71013 -12.09651,-69.07096 -43.40626,7.71013 C 409.46326,180.45108 401.41542,166.52686 391.65548,154.0134 L 420.02974,119.95889 366.68627,74.878896 338.33596,108.90445 C 324.48902,101.4308 309.49375,95.84406 293.69035,92.491684 V 48.116273 h -69.634 v 44.375411 c -15.805,3.352376 -30.80026,8.939116 -44.64881,16.412766 L 151.05884,74.878896 97.715355,119.9605 126.08642,154.01501 c -9.75834,12.51346 -17.80618,26.43929 -23.80492,41.41233 l -43.406264,-7.71012 -12.090123,69.07095 43.407854,7.71013 c 0.535032,16.40632 3.390665,32.22872 8.242685,47.1535 l -38.164542,22.19092 34.818597,60.73991 38.239613,-22.23435 c 10.60321,11.88609 22.84346,22.26009 36.35981,30.76486 l -15.09429,41.76463 65.43679,23.98454 15.07353,-41.70832 c 7.76834,1.10673 15.70119,1.69387 23.76819,1.69387 8.067,0 16.00144,-0.58393 23.76979,-1.69387 l 15.07193,41.71153 65.4336,-23.99097 z M 258.87016,348.4136 c -49.03447,0 -88.92709,-40.17852 -88.92709,-89.568 0,-49.38626 39.89262,-89.568 88.92709,-89.568 49.03447,0 88.92708,40.18174 88.92708,89.568 0,49.38948 -39.89102,89.568 -88.92708,89.568 z"
       id="path1"
       style="stroke-width:1.60286;fill:#ff4a57;fill-opacity:1" />
  </g>
</svg>
