<?xml version="1.0" encoding="utf-8"?>
<!-- Generator: Adobe Illustrator 25.2.1, SVG Export Plug-In . SVG Version: 6.00 Build 0)  -->
<svg version="1.1" id="Layer_1" xmlns="http://www.w3.org/2000/svg" xmlns:xlink="http://www.w3.org/1999/xlink" x="0px" y="0px"
	 viewBox="0 0 141.7 85" style="enable-background:new 0 0 141.7 85;" xml:space="preserve">
<style type="text/css">
	.st0{fill:#891249;}
</style>
<g>
	<path class="st0" d="M104.5,57.6c-0.1,0.6-0.2,1.2-0.2,1.9c-0.1,0.6-0.1,1.2-0.2,1.8c0,0.6-0.1,1.1-0.1,1.6c0,0.5,0,4.2,0,4.6
		c0,0.6,0,1,0,1.4s0,0.7,0.1,1c0,0.3,0.1,0.5,0.1,0.7c0.1,0.2,0.1,0.3,0.2,0.4c0.1,0.1,0.2,0.1,0.3,0.2s0.2,0,0.4,0
		c0.3,0,0.5,0,0.8-0.1c0.3-0.1,0.6-0.2,0.9-0.3l0.2,0.4c-0.2,0.2-0.4,0.3-0.7,0.5s-0.6,0.3-0.9,0.4s-0.6,0.2-1,0.3
		c-0.3,0.1-0.6,0.1-0.8,0.1c-0.2,0-0.3,0-0.4,0c-0.1,0-0.2-0.1-0.3-0.2c-0.1-0.1-0.2-0.2-0.3-0.4c-0.1-0.2-0.1-0.4-0.2-0.8
		c-0.1-0.3-0.1-0.7-0.1-1.2c0-0.5,0-1.1,0-1.8c0-0.4,0-4.1,0-4.6c0-0.5,0-1.1,0-1.6c0-0.6,0-1.2,0.1-1.9c0-0.7,0.1-1.3,0.1-2
		c0-0.2,0.1-0.3,0.1-0.4c0.1-0.1,0.2-0.2,0.3-0.2c0.1-0.1,0.2-0.1,0.3-0.1s0.2,0,0.3,0C103.9,57.3,104.2,57.4,104.5,57.6z
		 M103.8,49.5c-0.2,0-0.4,0-0.5-0.1s-0.3-0.2-0.4-0.3c-0.1-0.1-0.2-0.3-0.2-0.4c-0.1-0.2-0.1-0.3-0.1-0.5c0-0.2,0-0.5,0.1-0.6
		c0.1-0.2,0.2-0.3,0.3-0.5c0.1-0.1,0.3-0.2,0.4-0.3c0.2-0.1,0.3-0.1,0.5-0.1c0.2,0,0.3,0,0.5,0.1s0.3,0.2,0.4,0.3
		c0.1,0.1,0.2,0.3,0.2,0.4s0.1,0.3,0.1,0.5c0,0.2,0,0.4-0.1,0.6c-0.1,0.2-0.2,0.4-0.3,0.5s-0.3,0.3-0.4,0.4
		C104.2,49.5,104,49.5,103.8,49.5z"/>
	<path d="M45.8,40.5c-0.1,0.9-0.2,1.7-0.3,2.6s-0.2,1.7-0.2,2.5c-0.1,0.8-0.1,1.6-0.1,2.3c0,0.7,0,5.9,0,6.5c0,0.8,0,1.5,0,2
		c0,0.6,0.1,1,0.1,1.4c0.1,0.4,0.1,0.7,0.2,0.9c0.1,0.2,0.2,0.4,0.3,0.5c0.1,0.1,0.3,0.2,0.4,0.2c0.2,0,0.3,0.1,0.5,0.1
		c0.4,0,0.8-0.1,1.2-0.2c0.4-0.1,0.8-0.3,1.3-0.5l0.2,0.6c-0.3,0.2-0.6,0.4-1,0.7s-0.8,0.4-1.3,0.6c-0.5,0.2-0.9,0.3-1.3,0.5
		c-0.4,0.1-0.8,0.2-1.1,0.2c-0.2,0-0.4,0-0.6-0.1c-0.2,0-0.3-0.1-0.5-0.3c-0.1-0.1-0.3-0.3-0.4-0.6c-0.1-0.3-0.2-0.6-0.3-1.1
		c-0.1-0.5-0.1-1-0.2-1.7c0-0.7-0.1-1.5-0.1-2.5c0-0.6,0-5.8,0-6.5c0-0.7,0-1.5,0.1-2.3c0-0.8,0.1-1.7,0.1-2.6
		c0-0.9,0.1-1.9,0.1-2.8c0-0.2,0.1-0.4,0.2-0.5s0.2-0.2,0.4-0.3c0.1-0.1,0.3-0.1,0.5-0.1s0.3,0,0.4,0C44.9,40.1,45.4,40.3,45.8,40.5
		z M44.8,33.7c-0.3,0-0.5-0.1-0.7-0.2c-0.2-0.1-0.4-0.3-0.5-0.4c-0.1-0.2-0.3-0.4-0.3-0.6s-0.1-0.5-0.1-0.7c0-0.3,0.1-0.6,0.2-0.9
		c0.1-0.3,0.3-0.5,0.4-0.7c0.2-0.2,0.4-0.3,0.6-0.4c0.2-0.1,0.4-0.1,0.6-0.1c0.3,0,0.5,0,0.7,0.1s0.4,0.2,0.5,0.4s0.3,0.4,0.3,0.6
		s0.1,0.4,0.1,0.7c0,0.3,0,0.5-0.1,0.8c-0.1,0.3-0.2,0.5-0.4,0.7s-0.4,0.4-0.6,0.5C45.4,33.6,45.1,33.7,44.8,33.7z"/>
	<path d="M88.4,51.4c0.3,0,0.5,0.1,0.7,0.3c0.2,0.2,0.3,0.4,0.3,0.7c0,0.3-0.1,0.5-0.3,0.7c-1.3,1.2-2.9,1.7-4.7,1.7
		c-2,0-3.7-0.7-5.1-2.1c-1.4-1.4-2.1-3.1-2.1-5.1s0.7-3.7,2.1-5.1c1.4-1.4,3.1-2.1,5.1-2.1c2,0,3.7,0.7,5.1,2.1
		c1.4,1.4,2.1,3.1,2.1,5.1c0,0.3-0.1,0.5-0.3,0.7c-0.2,0.2-0.4,0.3-0.7,0.3H79.3c0.2,1,0.7,1.9,1.4,2.6c1,1,2.2,1.5,3.7,1.5
		c1.3,0,2.4-0.4,3.3-1.2C87.9,51.5,88.1,51.4,88.4,51.4z M89.5,46.7c-0.2-1-0.7-1.9-1.4-2.6c-1-1-2.2-1.5-3.7-1.5
		c-1.4,0-2.7,0.5-3.7,1.5c-0.8,0.8-1.2,1.6-1.4,2.6H89.5z"/>
	<path d="M107.4,51.4c0.3,0,0.5,0.1,0.7,0.3c0.2,0.2,0.3,0.4,0.3,0.7c0,0.3-0.1,0.5-0.3,0.8c-1.3,1.2-2.9,1.7-4.7,1.7
		c-2,0-3.7-0.7-5.1-2.1s-2.1-3.1-2.1-5.1s0.7-3.7,2.1-5.1s3.1-2.1,5.1-2.1c1.8,0,3.4,0.6,4.7,1.7c0.2,0.2,0.4,0.5,0.4,0.8
		c0,0.3-0.1,0.5-0.3,0.7c-0.2,0.2-0.4,0.3-0.7,0.3c-0.3,0-0.5-0.1-0.7-0.2c-1-0.9-2.1-1.3-3.4-1.3c-1.4,0-2.7,0.5-3.7,1.5
		c-1,1-1.5,2.2-1.5,3.7s0.5,2.7,1.5,3.7c1,1,2.2,1.5,3.7,1.5c1.3,0,2.4-0.4,3.4-1.3C106.9,51.5,107.1,51.4,107.4,51.4z"/>
	<path d="M124.5,42.4c-1.3-1.3-2.9-2-4.8-2c-1.8,0-3.4,0.6-4.7,1.9v-7.1c0-0.3-0.1-0.5-0.3-0.7c-0.2-0.2-0.4-0.3-0.7-0.3
		s-0.5,0.1-0.7,0.3c-0.2,0.2-0.3,0.4-0.3,0.7v18.7c0,0,0,0,0,0v17.6c0,0.3,0.1,0.5,0.3,0.7c0.2,0.2,0.4,0.3,0.7,0.3h5.7
		c0.3,0,0.5-0.1,0.7-0.3c0.2-0.2,0.3-0.4,0.3-0.7s-0.1-0.5-0.3-0.7s-0.4-0.3-0.7-0.3h-4.6V52.9c0,0,0,0,0,0v-5.7
		c0-1.3,0.5-2.4,1.4-3.3s2-1.4,3.3-1.4c1.3,0,2.4,0.5,3.3,1.4s1.4,2,1.4,3.3v6.7c0,0.3,0.1,0.5,0.3,0.7c0.2,0.2,0.4,0.3,0.7,0.3
		s0.5-0.1,0.7-0.3c0.2-0.2,0.3-0.4,0.3-0.7v-6.7C126.5,45.3,125.8,43.7,124.5,42.4z"/>
	<path class="st0" d="M79.1,36c-0.5-0.5-1.2-0.8-1.9-0.8h-9.7c0,0,0,0,0,0h-9.1c0,0,0,0,0,0h-0.8c-0.7,0-1.4,0.3-1.9,0.8
		c-0.5,0.5-0.8,1.2-0.8,1.9s0.3,1.4,0.8,1.9c0.5,0.5,1.2,0.8,1.9,0.8h0.1c0.2,0.1,0.5,0.1,0.7,0.1h5.1l0,0.6v21.2
		c-5.2,3.8-11.3,5.7-18.1,5.6c-25.9,0-31.7-17-31.7-25.7c0-8.8,5.9-25.7,31.7-25.7c7.5,0,14,2.2,19.6,6.7c0.8,0.8,1.7,1.2,2.8,1.2
		c1.1,0,2-0.4,2.8-1.2c0.8-0.8,1.2-1.7,1.2-2.8c0-1.1-0.4-2-1.1-2.8c-7.4-6-15.8-9.1-25.2-9.1C14.8,8.9,5.7,31.6,5.7,42.5
		c0,10.9,7.1,33.7,39.6,33.7c9.2,0,17.6-2.9,24.9-8.8c0.8-0.8,1.1-1.7,1.1-2.8V40.7l0,0l0,0h5.8c0.7,0,1.4-0.3,1.9-0.8
		c0.5-0.5,0.8-1.2,0.8-1.9S79.6,36.6,79.1,36z"/>
	<path d="M94,71.8c0,0.2-0.1,0.4-0.2,0.6c-0.2,0.2-0.4,0.2-0.6,0.2s-0.4-0.1-0.6-0.2c-0.2-0.2-0.2-0.4-0.2-0.6v-0.7
		c-1.1,1-2.3,1.5-3.8,1.5c-1.5,0-2.8-0.5-3.9-1.6c-1.1-1.1-1.6-2.4-1.6-3.9v-5.5c0-0.2,0.1-0.4,0.2-0.6c0.2-0.2,0.4-0.2,0.6-0.2
		s0.4,0.1,0.6,0.2c0.2,0.2,0.2,0.4,0.2,0.6v5.5c0,1,0.4,1.9,1.1,2.7c0.7,0.7,1.6,1.1,2.7,1.1c1,0,1.9-0.4,2.7-1.1
		c0.7-0.7,1.1-1.6,1.1-2.7v-5.5c0-0.2,0.1-0.4,0.2-0.6c0.2-0.2,0.4-0.2,0.6-0.2s0.4,0.1,0.6,0.2c0.2,0.2,0.2,0.4,0.2,0.6V71.8z"/>
	<path d="M134.4,56.8c0-0.2,0.1-0.4,0.2-0.6s0.4-0.2,0.6-0.2s0.4,0.1,0.6,0.2s0.2,0.4,0.2,0.6v10c0,1.6-0.6,3-1.7,4.1
		c-1.1,1.1-2.5,1.7-4.1,1.7s-3-0.6-4.1-1.7c-1.1-1.1-1.7-2.5-1.7-4.1s0.6-3,1.7-4.1c1.1-1.1,2.5-1.7,4.1-1.7s3,0.6,4.1,1.7
		c0,0,0,0,0,0V56.8z M134.4,66.8c0-1.2-0.4-2.1-1.2-2.9c-0.8-0.8-1.8-1.2-2.9-1.2s-2.1,0.4-2.9,1.2c-0.8,0.8-1.2,1.8-1.2,2.9
		s0.4,2.1,1.2,2.9c0.8,0.8,1.8,1.2,2.9,1.2s2.1-0.4,2.9-1.2C134,68.9,134.4,67.9,134.4,66.8z"/>
</g>
</svg>
