<?xml version="1.0" encoding="UTF-8" standalone="no"?>
<svg
   id="Layer_1"
   data-name="Layer 1"
   viewBox="0 0 100 60"
   version="1.1"
   sodipodi:docname="logo-dark.svg"
   inkscape:version="1.3.2 (1:1.3.2+202311252150+091e20ef0f)"
   xmlns:inkscape="http://www.inkscape.org/namespaces/inkscape"
   xmlns:sodipodi="http://sodipodi.sourceforge.net/DTD/sodipodi-0.dtd"
   xmlns="http://www.w3.org/2000/svg"
   xmlns:svg="http://www.w3.org/2000/svg">
  <sodipodi:namedview
     id="namedview12"
     pagecolor="#ffffff"
     bordercolor="#000000"
     borderopacity="0.25"
     inkscape:showpageshadow="2"
     inkscape:pageopacity="0.0"
     inkscape:pagecheckerboard="0"
     inkscape:deskcolor="#d1d1d1"
     inkscape:zoom="13.6"
     inkscape:cx="50"
     inkscape:cy="30"
     inkscape:window-width="1850"
     inkscape:window-height="1016"
     inkscape:window-x="0"
     inkscape:window-y="0"
     inkscape:window-maximized="1"
     inkscape:current-layer="Layer_1" />
  <defs
     id="defs1">
    <style
       id="style1">.cls-1{fill:#23263a;}.cls-2{fill:#e94c5b;}.cls-3,.cls-4{fill:#fff;}.cls-4{stroke:#fff;stroke-miterlimit:10;stroke-width:0.25px;}</style>
  </defs>
  <path
     class="cls-2"
     d="M73.11,51.35a1.58,1.58,0,0,1-.32,0,.63.63,0,0,1-.3-.16,1.24,1.24,0,0,1-.22-.35,2.62,2.62,0,0,1-.14-.57,7.84,7.84,0,0,1-.09-.87c0-.35,0-.76,0-1.25V44.86c0-.36,0-.75,0-1.16s0-.86,0-1.31,0-.94.07-1.43a.68.68,0,0,1,.11-.33.71.71,0,0,1,.23-.19.77.77,0,0,1,.27-.08l.24,0a1.62,1.62,0,0,1,.78.2l.08,0v.09c-.07.43-.12.86-.17,1.3s-.08.85-.11,1.26,0,.79-.06,1.15,0,3,0,3.27,0,.73,0,1,0,.51.06.7a4.13,4.13,0,0,0,.09.44.7.7,0,0,0,.13.23.42.42,0,0,0,.14.09l.24,0a1.94,1.94,0,0,0,.56-.08,4.2,4.2,0,0,0,.62-.22l.13-.06.18.51-.07.06a4.43,4.43,0,0,1-.53.35L74.4,51c-.24.09-.47.17-.69.23A2.08,2.08,0,0,1,73.11,51.35Zm.14-16.27a.93.93,0,0,1-.42-.09,1.18,1.18,0,0,1-.3-.25,1.19,1.19,0,0,1-.19-.35,1.34,1.34,0,0,1-.06-.4,1.28,1.28,0,0,1,.09-.5,1.14,1.14,0,0,1,.25-.37,1.06,1.06,0,0,1,.35-.23,1,1,0,0,1,.37-.08.87.87,0,0,1,.4.09,1,1,0,0,1,.31.22,1.38,1.38,0,0,1,.2.33A1.35,1.35,0,0,1,74,34.68a1.05,1.05,0,0,1-.34.29A.82.82,0,0,1,73.25,35.08Z"
     id="path1" />
  <path
     class="cls-2"
     d="M73.34,32.94a.78.78,0,0,1,.35.07.86.86,0,0,1,.27.2.92.92,0,0,1,.17.29,1,1,0,0,1,.06.35,1.12,1.12,0,0,1-.07.4,1.31,1.31,0,0,1-.19.35.83.83,0,0,1-.3.26.73.73,0,0,1-.39.1.78.78,0,0,1-.35-.08.92.92,0,0,1-.26-.22.85.85,0,0,1-.17-.31A1.13,1.13,0,0,1,72.4,34a1.06,1.06,0,0,1,.09-.45,1,1,0,0,1,.22-.33A.87.87,0,0,1,73,33a.77.77,0,0,1,.32-.07M73,40.46a1.48,1.48,0,0,1,.72.18c-.06.43-.12.87-.16,1.3s-.09.86-.11,1.27,0,.8-.07,1.16,0,3,0,3.27,0,.74,0,1a6.3,6.3,0,0,0,.06.72,2.24,2.24,0,0,0,.1.47.71.71,0,0,0,.15.26.34.34,0,0,0,.2.13,1.12,1.12,0,0,0,.27,0,2.17,2.17,0,0,0,.59-.09,3.28,3.28,0,0,0,.64-.23l.11.3a4.28,4.28,0,0,1-.52.34,5.59,5.59,0,0,1-.65.31,4.84,4.84,0,0,1-.67.23,2.22,2.22,0,0,1-.57.09l-.29,0a.47.47,0,0,1-.24-.13.82.82,0,0,1-.19-.31,2.31,2.31,0,0,1-.14-.54c0-.23-.06-.51-.08-.86s0-.76,0-1.25c0-.28,0-2.89,0-3.25s0-.75,0-1.16,0-.85,0-1.31,0-.93.08-1.42a.4.4,0,0,1,.08-.26.55.55,0,0,1,.18-.16,1,1,0,0,1,.24-.07l.22,0m.32-7.77a1.25,1.25,0,0,0-.42.08,1.08,1.08,0,0,0-.38.26,1.2,1.2,0,0,0-.28.41,1.38,1.38,0,0,0-.11.55,1.62,1.62,0,0,0,.07.44,1.47,1.47,0,0,0,.21.39,1.3,1.3,0,0,0,.34.28,1,1,0,0,0,.47.11,1,1,0,0,0,.51-.13,1.18,1.18,0,0,0,.38-.32,1.78,1.78,0,0,0,.23-.43,1.61,1.61,0,0,0,.08-.48,1.27,1.27,0,0,0-.08-.44,1.07,1.07,0,0,0-.22-.37,1.1,1.1,0,0,0-.34-.26,1.14,1.14,0,0,0-.46-.09ZM73,40.21l-.26,0a1.12,1.12,0,0,0-.31.1.74.74,0,0,0-.27.23.7.7,0,0,0-.13.39c0,.49-.06,1-.08,1.43s0,.9,0,1.31,0,.81,0,1.17,0,3,0,3.25c0,.49,0,.92,0,1.27a8.62,8.62,0,0,0,.09.88,2,2,0,0,0,.15.6,1.3,1.3,0,0,0,.24.39.77.77,0,0,0,.37.19,1.72,1.72,0,0,0,.34,0,2.27,2.27,0,0,0,.63-.1,5.4,5.4,0,0,0,.71-.24l.68-.32a4.74,4.74,0,0,0,.55-.37l.14-.11-.06-.17-.11-.29-.09-.26-.25.11a3.13,3.13,0,0,1-.6.22,2.13,2.13,0,0,1-.53.08A.66.66,0,0,1,74,50a.1.1,0,0,1-.08-.05.37.37,0,0,1-.1-.18,3.86,3.86,0,0,1-.09-.41c0-.19,0-.42,0-.7s0-.62,0-1,0-2.9,0-3.26,0-.75.06-1.15.07-.83.12-1.26.1-.87.16-1.3l0-.17-.16-.08a1.74,1.74,0,0,0-.84-.21Z"
     id="path2" />
  <path
     class="cls-3"
     d="M31.42,43.55a2.9,2.9,0,0,1-.43,0,.84.84,0,0,1-.4-.22,1.36,1.36,0,0,1-.29-.47,3.32,3.32,0,0,1-.2-.79c-.05-.32-.09-.73-.12-1.21s0-1.07,0-1.76c0-.41,0-4.07,0-4.57s0-1,0-1.63,0-1.2.06-1.84.07-1.32.11-2a.85.85,0,0,1,.14-.44.93.93,0,0,1,.31-.25,1.39,1.39,0,0,1,.36-.12l.33,0a2.21,2.21,0,0,1,1.07.27l.08,0v.09c-.09.61-.17,1.22-.23,1.83s-.12,1.2-.16,1.77S32,33.3,32,33.81s0,4.18,0,4.59,0,1,0,1.43a8.44,8.44,0,0,0,.08,1,4.55,4.55,0,0,0,.13.63.87.87,0,0,0,.19.33.44.44,0,0,0,.22.14,1.83,1.83,0,0,0,.35,0,3.48,3.48,0,0,0,.8-.11,5.52,5.52,0,0,0,.88-.32l.12-.05.23.62-.07.06a5.58,5.58,0,0,1-.74.49,9.9,9.9,0,0,1-.93.44,8.55,8.55,0,0,1-1,.34A3.53,3.53,0,0,1,31.42,43.55Zm.2-19.67a1.25,1.25,0,0,1-.56-.13,1.49,1.49,0,0,1-.41-.34,1.63,1.63,0,0,1-.25-.47,1.71,1.71,0,0,1-.09-.55,1.83,1.83,0,0,1,.13-.68,1.69,1.69,0,0,1,.34-.51,1.42,1.42,0,0,1,.47-.31,1.53,1.53,0,0,1,.5-.1,1.38,1.38,0,0,1,.55.11,1.27,1.27,0,0,1,.41.31,1.46,1.46,0,0,1,.27.45,1.51,1.51,0,0,1,.09.53,1.77,1.77,0,0,1-.11.6,1.73,1.73,0,0,1-.28.54,1.57,1.57,0,0,1-.46.39A1.12,1.12,0,0,1,31.62,23.88Z"
     id="path3" />
  <path
     class="cls-3"
     d="M31.75,20.92a1.07,1.07,0,0,1,.49.1,1.15,1.15,0,0,1,.38.27,1.52,1.52,0,0,1,.24.41,1.33,1.33,0,0,1,.08.49,1.77,1.77,0,0,1-.09.56,2,2,0,0,1-.27.5,1.64,1.64,0,0,1-.42.37,1.08,1.08,0,0,1-.54.13,1.12,1.12,0,0,1-.5-.11,1.23,1.23,0,0,1-.37-.31,1.37,1.37,0,0,1-.23-.43,1.47,1.47,0,0,1-.08-.51,1.54,1.54,0,0,1,.12-.63,1.43,1.43,0,0,1,.31-.47A1.18,1.18,0,0,1,31.3,21a1.2,1.2,0,0,1,.45-.09m-.45,7.4a2.14,2.14,0,0,1,1,.25q-.14.91-.24,1.83c-.06.62-.11,1.21-.15,1.78s-.07,1.12-.09,1.63,0,4.18,0,4.59c0,.56,0,1,0,1.43s.05.74.08,1a3.44,3.44,0,0,0,.15.66.92.92,0,0,0,.2.37.64.64,0,0,0,.29.18,2.11,2.11,0,0,0,.38,0,3.26,3.26,0,0,0,.83-.12,5.39,5.39,0,0,0,.9-.32l.15.41a4.49,4.49,0,0,1-.72.48,8.67,8.67,0,0,1-.92.44,7.59,7.59,0,0,1-1,.32,2.82,2.82,0,0,1-.8.13,1.64,1.64,0,0,1-.4,0,.6.6,0,0,1-.34-.18,1.12,1.12,0,0,1-.26-.42,3.39,3.39,0,0,1-.2-.77,10.79,10.79,0,0,1-.11-1.2c0-.48,0-1.07,0-1.75,0-.4,0-4.06,0-4.57s0-1,0-1.63,0-1.19.06-1.84.06-1.31.1-2a.64.64,0,0,1,.12-.36.68.68,0,0,1,.26-.22,1.15,1.15,0,0,1,.33-.1l.31,0m.45-7.65a1.38,1.38,0,0,0-.55.11,1.45,1.45,0,0,0-.5.33,1.53,1.53,0,0,0-.37.55,1.7,1.7,0,0,0-.14.73,1.85,1.85,0,0,0,.09.58,1.53,1.53,0,0,0,.28.52,1.58,1.58,0,0,0,.44.37,1.38,1.38,0,0,0,.62.14,1.25,1.25,0,0,0,.66-.17,1.56,1.56,0,0,0,.5-.42,2,2,0,0,0,.3-.58,1.76,1.76,0,0,0,.11-.64,1.61,1.61,0,0,0-.1-.58,1.32,1.32,0,0,0-.29-.48,1.37,1.37,0,0,0-.45-.34,1.46,1.46,0,0,0-.6-.12Zm-.45,7.4-.35,0a1.34,1.34,0,0,0-.4.13,1,1,0,0,0-.35.29A1.06,1.06,0,0,0,30,29c0,.69-.07,1.35-.1,2s-.05,1.26-.06,1.84,0,1.13,0,1.64,0,4.14,0,4.57c0,.68,0,1.27,0,1.76A9.3,9.3,0,0,0,30,42.06a3.22,3.22,0,0,0,.21.82,1.4,1.4,0,0,0,.32.51,1,1,0,0,0,.46.25,2.15,2.15,0,0,0,.45,0,3.82,3.82,0,0,0,.87-.13,8,8,0,0,0,1-.34c.33-.14.65-.29,1-.45a5.9,5.9,0,0,0,.76-.5l.14-.11L35.05,42l-.15-.42-.1-.25-.24.11a5.26,5.26,0,0,1-.86.31,3.24,3.24,0,0,1-.77.11,1,1,0,0,1-.32,0,.26.26,0,0,1-.16-.1.9.9,0,0,1-.16-.28,3.91,3.91,0,0,1-.13-.61c0-.26-.06-.59-.08-1s0-.87,0-1.42,0-4.08,0-4.58,0-1,.09-1.62.09-1.16.15-1.77.14-1.21.23-1.83l0-.17-.16-.08a2.34,2.34,0,0,0-1.13-.28Z"
     id="path4" />
  <path
     class="cls-3"
     d="M62.36,36.28a.67.67,0,0,1,.52.22.7.7,0,0,1,.22.51.72.72,0,0,1-.21.52,5.12,5.12,0,0,1-7-7.5,5.12,5.12,0,0,1,8.74,3.62.7.7,0,0,1-.22.52.69.69,0,0,1-.51.21H56a3.48,3.48,0,0,0,1,1.86,3.54,3.54,0,0,0,2.59,1.07,3.46,3.46,0,0,0,2.36-.87A.67.67,0,0,1,62.36,36.28Zm.78-3.36A3.67,3.67,0,0,0,57,31.06a3.48,3.48,0,0,0-1,1.86Z"
     id="path5" />
  <path
     class="cls-3"
     d="M75.77,36.26a.74.74,0,0,1,.52.22.74.74,0,0,1,0,1.05,4.86,4.86,0,0,1-3.33,1.24A5.12,5.12,0,0,1,69.32,30a5.12,5.12,0,0,1,7-.27.75.75,0,0,1,.26.57.7.7,0,0,1-.22.52.69.69,0,0,1-.51.21.72.72,0,0,1-.47-.16A3.47,3.47,0,0,0,72.94,30a3.66,3.66,0,1,0,0,7.32,3.46,3.46,0,0,0,2.38-.9A.72.72,0,0,1,75.77,36.26Z"
     id="path6" />
  <path
     class="cls-4"
     d="M87.86,29.92a4.77,4.77,0,0,0-6.66-.07v-5a.73.73,0,0,0-.73-.73.75.75,0,0,0-.73.73V38h0V50.49A.74.74,0,0,0,80,51a.69.69,0,0,0,.51.21h4A.69.69,0,0,0,85,51a.72.72,0,0,0,0-1,.69.69,0,0,0-.51-.21H81.21V37.32h0v-4A3.29,3.29,0,0,1,86.82,31a3.13,3.13,0,0,1,1,2.32V38a.73.73,0,0,0,.73.73.75.75,0,0,0,.73-.73V33.28A4.61,4.61,0,0,0,87.86,29.92Z"
     id="path7" />
  <path
     class="cls-2"
     d="M55.8,25.42a1.88,1.88,0,0,0-1.36-.56H40.56a1.87,1.87,0,0,0-1.35.56,2,2,0,0,0,0,2.74,1.85,1.85,0,0,0,1.35.57h.06a2.17,2.17,0,0,0,.52.08h3.59l0,.44V44.17a21.38,21.38,0,0,1-12.79,4c-18.28,0-22.37-12-22.37-18.16S13.75,11.84,32,11.84A21.37,21.37,0,0,1,45.77,16.6a2.71,2.71,0,0,0,2,.84,2.82,2.82,0,0,0,2.79-2.8,2.76,2.76,0,0,0-.8-2A27.21,27.21,0,0,0,32,6.25C10.44,6.25,4,22.29,4,30S9,53.75,32,53.75a27.46,27.46,0,0,0,17.58-6.22,2.66,2.66,0,0,0,.8-2V28.74h4.1a1.85,1.85,0,0,0,1.36-.57,2,2,0,0,0,0-2.74Z"
     id="path8" />
  <path
     class="cls-3"
     d="M65.75,51.35a.69.69,0,0,1-.51-.21.73.73,0,0,1-.21-.51v-.2a3.84,3.84,0,0,1-2.55.92,4,4,0,0,1-4-4V43.5a.7.7,0,0,1,.71-.72.72.72,0,0,1,.72.72v3.86a2.55,2.55,0,0,0,4.35,1.8,2.4,2.4,0,0,0,.75-1.8V43.5a.72.72,0,1,1,1.44,0v7.13a.67.67,0,0,1-.22.51A.66.66,0,0,1,65.75,51.35Z"
     id="path9" />
  <path
     class="cls-3"
     d="M65.75,42.91a.57.57,0,0,1,.42.17.61.61,0,0,1,.17.42v7.13a.58.58,0,0,1-.59.59.6.6,0,0,1-.6-.59v-.48a3.86,3.86,0,0,1-6.53-2.79V43.5a.61.61,0,0,1,.17-.42.57.57,0,0,1,.42-.17.54.54,0,0,1,.42.17.58.58,0,0,1,.18.42v3.86a2.67,2.67,0,1,0,5.34,0V43.5a.58.58,0,0,1,.18-.42.54.54,0,0,1,.42-.17m0-.25a.85.85,0,0,0-.6.24.86.86,0,0,0-.25.6v3.86a2.42,2.42,0,0,1-2.42,2.42,2.31,2.31,0,0,1-1.71-.71,2.28,2.28,0,0,1-.71-1.71V43.5a.86.86,0,0,0-.25-.6.86.86,0,0,0-1.19,0,.84.84,0,0,0-.25.6v3.86a4.11,4.11,0,0,0,4.11,4.11,3.93,3.93,0,0,0,2.43-.79.79.79,0,0,0,.24.54.82.82,0,0,0,.6.25.85.85,0,0,0,.84-.84V43.5a.84.84,0,0,0-.84-.84Z"
     id="path10" />
  <path
     class="cls-3"
     d="M91.89,51.35a4.24,4.24,0,1,1,2.81-7.41V40.05a.72.72,0,0,1,1.43,0v7.06a4.23,4.23,0,0,1-4.24,4.24Zm0-7.05a2.81,2.81,0,0,0-2,4.8,2.81,2.81,0,0,0,4.8-2,2.8,2.8,0,0,0-2.81-2.81Z"
     id="path11" />
  <path
     class="cls-3"
     d="M95.41,39.46a.56.56,0,0,1,.42.18.57.57,0,0,1,.17.41v7.06a4.11,4.11,0,1,1-1.2-2.9l0,0V40.05a.53.53,0,0,1,.17-.41.54.54,0,0,1,.41-.18M91.89,50.05a2.94,2.94,0,1,0-2.08-.86,2.85,2.85,0,0,0,2.08.86m3.52-10.84a.83.83,0,0,0-.59.25.81.81,0,0,0-.24.59v3.63a4.35,4.35,0,1,0,1.67,3.43V40.05a.81.81,0,0,0-.24-.59.86.86,0,0,0-.6-.25ZM91.89,49.8a2.7,2.7,0,1,1,1.9-.79,2.57,2.57,0,0,1-1.9.79Z"
     id="path12" />
</svg>
