<svg id="Layer_1" data-name="Layer 1" xmlns="http://www.w3.org/2000/svg" viewBox="0 0 100 60"><defs><style>.cls-1{fill:none;}.cls-2{fill:#891249;}.cls-3,.cls-4{fill:#1d1d1b;}.cls-4{stroke:#1d1d1b;stroke-miterlimit:10;stroke-width:0.25px;}</style></defs><rect class="cls-1" width="100" height="60"/><path class="cls-2" d="M73.11,51.35a1.58,1.58,0,0,1-.32,0,.63.63,0,0,1-.3-.16,1,1,0,0,1-.21-.35,2.56,2.56,0,0,1-.15-.57,7.84,7.84,0,0,1-.09-.87c0-.35,0-.76,0-1.25,0-.29,0-2.9,0-3.26s0-.75,0-1.16,0-.85,0-1.31,0-.94.07-1.43a.68.68,0,0,1,.11-.33.71.71,0,0,1,.23-.19.84.84,0,0,1,.27-.08l.24,0a1.62,1.62,0,0,1,.78.2l.08,0v.09c-.07.43-.12.86-.17,1.3s-.08.85-.11,1.26,0,.79-.06,1.15,0,3,0,3.27,0,.73,0,1a6.18,6.18,0,0,0,0,.7,2.81,2.81,0,0,0,.1.45.57.57,0,0,0,.12.22.42.42,0,0,0,.14.09l.24,0a1.94,1.94,0,0,0,.56-.08,4.2,4.2,0,0,0,.62-.22l.12-.06.19.51-.07.06a4.43,4.43,0,0,1-.53.35L74.4,51c-.24.09-.47.17-.69.23A2.08,2.08,0,0,1,73.11,51.35Zm.14-16.27a.93.93,0,0,1-.42-.09,1,1,0,0,1-.3-.25,1.08,1.08,0,0,1-.19-.35,1.4,1.4,0,0,1,0-.9,1.12,1.12,0,0,1,.26-.37.93.93,0,0,1,.34-.23,1,1,0,0,1,.37-.08.84.84,0,0,1,.4.09.87.87,0,0,1,.31.23,1,1,0,0,1,.2.32,1.34,1.34,0,0,1,.07.4,1.36,1.36,0,0,1-.08.44,1.33,1.33,0,0,1-.21.39,1.05,1.05,0,0,1-.34.29A.82.82,0,0,1,73.25,35.08Z"/><path class="cls-2" d="M73.34,32.94a.78.78,0,0,1,.35.07.86.86,0,0,1,.27.2.92.92,0,0,1,.17.29,1,1,0,0,1,.06.35,1.12,1.12,0,0,1-.07.4,1.08,1.08,0,0,1-.19.35.83.83,0,0,1-.3.26.7.7,0,0,1-.38.1.8.8,0,0,1-.36-.08.92.92,0,0,1-.26-.22,1,1,0,0,1-.17-.31A1.13,1.13,0,0,1,72.4,34a1.06,1.06,0,0,1,.09-.45,1.12,1.12,0,0,1,.22-.33A1,1,0,0,1,73,33a.77.77,0,0,1,.32-.07M73,40.46a1.48,1.48,0,0,1,.72.18c-.06.43-.12.87-.16,1.3s-.09.86-.11,1.27,0,.8-.07,1.16,0,3,0,3.27,0,.74,0,1a6.1,6.1,0,0,0,.06.72,2.24,2.24,0,0,0,.1.47.87.87,0,0,0,.15.27.41.41,0,0,0,.2.12,1.12,1.12,0,0,0,.27,0,2.17,2.17,0,0,0,.59-.09,3.28,3.28,0,0,0,.64-.23l.11.3a4.09,4.09,0,0,1-.51.34,6.67,6.67,0,0,1-.66.31,4.84,4.84,0,0,1-.67.23,2.22,2.22,0,0,1-.57.09l-.29,0a.47.47,0,0,1-.24-.13,1,1,0,0,1-.19-.31,2.31,2.31,0,0,1-.14-.54c0-.23-.06-.51-.08-.86s0-.76,0-1.24c0-.29,0-2.9,0-3.26s0-.75,0-1.16,0-.85,0-1.31,0-.93.08-1.42a.42.42,0,0,1,.08-.26.55.55,0,0,1,.18-.16,1,1,0,0,1,.24-.07l.22,0m.32-7.77a1.3,1.3,0,0,0-.42.08,1.08,1.08,0,0,0-.38.26,1.2,1.2,0,0,0-.28.41,1.38,1.38,0,0,0-.11.55,1.62,1.62,0,0,0,.07.44,1.47,1.47,0,0,0,.21.39,1.3,1.3,0,0,0,.34.28,1.06,1.06,0,0,0,.48.11,1,1,0,0,0,.5-.13,1.18,1.18,0,0,0,.38-.32,1.5,1.5,0,0,0,.31-.91,1.27,1.27,0,0,0-.08-.44,1.23,1.23,0,0,0-.21-.37,1.28,1.28,0,0,0-.35-.26,1.14,1.14,0,0,0-.46-.09ZM73,40.21l-.26,0a1.12,1.12,0,0,0-.31.1.74.74,0,0,0-.27.23.7.7,0,0,0-.13.39c0,.49-.06,1-.08,1.43s0,.9,0,1.31,0,.81,0,1.17,0,3,0,3.26c0,.48,0,.91,0,1.26a8.62,8.62,0,0,0,.09.88,2.89,2.89,0,0,0,.15.6,1.3,1.3,0,0,0,.24.39.7.7,0,0,0,.37.19,1.72,1.72,0,0,0,.34,0,2.27,2.27,0,0,0,.63-.1,5.4,5.4,0,0,0,.71-.24l.68-.32a4.74,4.74,0,0,0,.55-.37l.14-.11-.06-.17-.11-.29-.09-.26-.25.11a3.13,3.13,0,0,1-.6.22,2.13,2.13,0,0,1-.53.08L74,50a.16.16,0,0,1-.08-.06.37.37,0,0,1-.1-.18,2.47,2.47,0,0,1-.08-.41,5.91,5.91,0,0,1-.06-.7c0-.28,0-.62,0-1s0-2.9,0-3.26,0-.75.07-1.15.06-.83.11-1.26.1-.87.16-1.3l0-.17-.16-.08a1.74,1.74,0,0,0-.84-.21Z"/><path class="cls-2" d="M31.43,43.55a2.94,2.94,0,0,1-.44,0,.8.8,0,0,1-.4-.22,1.46,1.46,0,0,1-.29-.47,3.45,3.45,0,0,1-.2-.79c-.05-.32-.09-.73-.12-1.21s0-1.07,0-1.76c0-.4,0-4.06,0-4.57s0-1,0-1.63,0-1.2.07-1.84.06-1.32.1-2a.85.85,0,0,1,.14-.44.93.93,0,0,1,.31-.25,1.39,1.39,0,0,1,.36-.12l.34,0a2.2,2.2,0,0,1,1.06.27l.08,0v.09c-.09.61-.17,1.22-.23,1.83s-.12,1.2-.16,1.77S32,33.31,32,33.81s0,4.18,0,4.59c0,.56,0,1,0,1.43s0,.73.08,1a4.55,4.55,0,0,0,.13.63.87.87,0,0,0,.19.33.44.44,0,0,0,.22.14,1.9,1.9,0,0,0,.35,0,3,3,0,0,0,.8-.11,5.19,5.19,0,0,0,.88-.32l.12-.05.23.62-.07.06a5.58,5.58,0,0,1-.74.49q-.45.24-.93.45t-1,.33A3.52,3.52,0,0,1,31.43,43.55Zm.19-19.67a1.25,1.25,0,0,1-.56-.13,1.65,1.65,0,0,1-.41-.34,1.63,1.63,0,0,1-.25-.47,1.71,1.71,0,0,1-.09-.55,1.83,1.83,0,0,1,.13-.68,1.69,1.69,0,0,1,.34-.51,1.42,1.42,0,0,1,.47-.31,1.53,1.53,0,0,1,.5-.1,1.38,1.38,0,0,1,.55.11,1.27,1.27,0,0,1,.41.31,1.29,1.29,0,0,1,.27.45,1.51,1.51,0,0,1,.09.53,2,2,0,0,1-.1.6,2,2,0,0,1-.29.54,1.43,1.43,0,0,1-.46.39A1.12,1.12,0,0,1,31.62,23.88Z"/><path class="cls-2" d="M31.76,20.92a1.13,1.13,0,0,1,.49.1,1.22,1.22,0,0,1,.37.27,1.52,1.52,0,0,1,.24.41,1.33,1.33,0,0,1,.08.49,1.77,1.77,0,0,1-.09.56,2,2,0,0,1-.27.5,1.47,1.47,0,0,1-.42.37,1.08,1.08,0,0,1-.54.13,1.15,1.15,0,0,1-.5-.11,1.23,1.23,0,0,1-.37-.31,1.27,1.27,0,0,1-.23-.43,1.45,1.45,0,0,1-.08-.5,1.56,1.56,0,0,1,.12-.64,1.43,1.43,0,0,1,.31-.47A1.18,1.18,0,0,1,31.3,21a1.22,1.22,0,0,1,.46-.09m-.45,7.4a2.13,2.13,0,0,1,1,.25q-.14.91-.24,1.83c-.06.62-.11,1.21-.15,1.78s-.07,1.12-.09,1.63,0,4.18,0,4.59c0,.56,0,1,0,1.43a8.45,8.45,0,0,0,.08,1,2.88,2.88,0,0,0,.14.66.92.92,0,0,0,.21.38.62.62,0,0,0,.28.17,2.11,2.11,0,0,0,.38,0,3.26,3.26,0,0,0,.83-.12,5.39,5.39,0,0,0,.9-.32l.16.41a5.13,5.13,0,0,1-.73.48,8.67,8.67,0,0,1-.92.44c-.32.13-.64.24-.94.33a3.3,3.3,0,0,1-.8.12,1.73,1.73,0,0,1-.41,0,.6.6,0,0,1-.34-.18,1.26,1.26,0,0,1-.26-.42,3.82,3.82,0,0,1-.2-.77,10.79,10.79,0,0,1-.11-1.2c0-.48,0-1.07,0-1.75,0-.4,0-4.06,0-4.57s0-1,0-1.63,0-1.19.06-1.84.06-1.31.11-2a.64.64,0,0,1,.12-.36.75.75,0,0,1,.25-.22,1.15,1.15,0,0,1,.33-.1l.32,0m.45-7.65a1.32,1.32,0,0,0-.55.11,1.4,1.4,0,0,0-.51.33,1.66,1.66,0,0,0-.37.55,1.88,1.88,0,0,0-.14.74,2,2,0,0,0,.09.58,1.57,1.57,0,0,0,.72.88,1.38,1.38,0,0,0,.62.14,1.25,1.25,0,0,0,.66-.17,1.56,1.56,0,0,0,.5-.42,2,2,0,0,0,.3-.58,1.76,1.76,0,0,0,.11-.64,1.61,1.61,0,0,0-.1-.58,1.44,1.44,0,0,0-.28-.48,1.41,1.41,0,0,0-.46-.34,1.45,1.45,0,0,0-.59-.12Zm-.45,7.4-.36,0a1.34,1.34,0,0,0-.4.13.87.87,0,0,0-.34.29A.88.88,0,0,0,30,29c-.05.69-.08,1.35-.11,2s-.05,1.26-.06,1.84,0,1.13,0,1.64,0,4.14,0,4.57c0,.68,0,1.27,0,1.76s.07.9.12,1.23a3.22,3.22,0,0,0,.21.82,1.4,1.4,0,0,0,.32.51.87.87,0,0,0,.46.25,2.19,2.19,0,0,0,.46,0,3.82,3.82,0,0,0,.86-.13,7.47,7.47,0,0,0,1-.34c.33-.14.65-.29,1-.45a5.9,5.9,0,0,0,.76-.5l.14-.11L35.05,42l-.15-.42-.09-.25-.25.11a5.26,5.26,0,0,1-.86.31,3.24,3.24,0,0,1-.77.11,1,1,0,0,1-.32,0,.26.26,0,0,1-.16-.1.9.9,0,0,1-.16-.28,3.91,3.91,0,0,1-.13-.61c0-.26-.06-.59-.07-1s0-.87,0-1.42,0-4.08,0-4.58,0-1,.09-1.62.09-1.16.15-1.77.14-1.21.23-1.82l0-.18-.16-.08a2.33,2.33,0,0,0-1.12-.28Z"/><path class="cls-3" d="M62.37,36.28a.75.75,0,0,1,.73.73.74.74,0,0,1-.21.53,5.12,5.12,0,0,1-7-7.51,5.12,5.12,0,0,1,8.74,3.62.7.7,0,0,1-.22.52.69.69,0,0,1-.51.21H56a3.66,3.66,0,0,0,3.59,2.93,3.46,3.46,0,0,0,2.36-.87A.7.7,0,0,1,62.37,36.28Zm.77-3.36a3.66,3.66,0,0,0-7.18,0Z"/><path class="cls-3" d="M75.77,36.26a.74.74,0,0,1,.52.22.7.7,0,0,1,.21.52.73.73,0,0,1-.23.54,5.12,5.12,0,0,1-7-7.51,5.12,5.12,0,0,1,7-.27.76.76,0,0,1,.26.57.72.72,0,0,1-.73.73.72.72,0,0,1-.47-.16A3.47,3.47,0,0,0,72.94,30a3.66,3.66,0,1,0,0,7.32,3.46,3.46,0,0,0,2.38-.9A.72.72,0,0,1,75.77,36.26Z"/><path class="cls-4" d="M87.86,29.92a4.76,4.76,0,0,0-6.66-.06v-5a.73.73,0,0,0-.73-.73.75.75,0,0,0-.73.73V38h0V50.49A.74.74,0,0,0,80,51a.7.7,0,0,0,.52.21h4A.69.69,0,0,0,85,51a.72.72,0,0,0,0-1,.69.69,0,0,0-.51-.21H81.21V33.28a3.18,3.18,0,0,1,1-2.32,3.3,3.3,0,0,1,5.62,2.32V38a.69.69,0,0,0,.21.51.72.72,0,0,0,1,0,.69.69,0,0,0,.21-.51V33.28A4.58,4.58,0,0,0,87.86,29.92Z"/><path class="cls-3" d="M55.8,25.42a1.88,1.88,0,0,0-1.36-.56H40.57a1.88,1.88,0,0,0-1.36.56,2,2,0,0,0,0,2.74,1.85,1.85,0,0,0,1.36.57h0a2.18,2.18,0,0,0,.53.08h3.58l0,.44V44.18a21.42,21.42,0,0,1-12.79,4c-18.28,0-22.37-12-22.37-18.16S13.75,11.84,32,11.84A21.37,21.37,0,0,1,45.77,16.6a2.71,2.71,0,0,0,2,.84,2.83,2.83,0,0,0,2.8-2.8,2.76,2.76,0,0,0-.81-2A27.21,27.21,0,0,0,32,6.25C10.44,6.25,4,22.29,4,30S9,53.75,32,53.75a27.41,27.41,0,0,0,17.58-6.22,2.66,2.66,0,0,0,.81-2V28.74h4.09a1.85,1.85,0,0,0,1.36-.57,2,2,0,0,0,0-2.74Z"/><path class="cls-3" d="M65.75,51.35a.69.69,0,0,1-.51-.21.71.71,0,0,1-.21-.51v-.2a3.84,3.84,0,0,1-2.55.92,4,4,0,0,1-4-4V43.5a.7.7,0,0,1,.22-.51.72.72,0,0,1,1.22.51v3.86a2.55,2.55,0,0,0,5.1,0V43.5a.72.72,0,1,1,1.44,0v7.13a.72.72,0,0,1-.72.72Z"/><path class="cls-3" d="M65.75,42.91a.57.57,0,0,1,.42.17.61.61,0,0,1,.17.42v7.13a.59.59,0,0,1-1,.42.58.58,0,0,1-.18-.42v-.48a3.86,3.86,0,0,1-6.53-2.79V43.5a.61.61,0,0,1,.17-.42.57.57,0,0,1,.42-.17.54.54,0,0,1,.42.17.58.58,0,0,1,.18.42v3.86a2.67,2.67,0,1,0,5.34,0V43.5a.58.58,0,0,1,.18-.42.57.57,0,0,1,.42-.17m0-.25a.85.85,0,0,0-.6.24.86.86,0,0,0-.25.6v3.86a2.42,2.42,0,0,1-2.42,2.42,2.31,2.31,0,0,1-1.71-.71,2.28,2.28,0,0,1-.71-1.71V43.5a.86.86,0,0,0-.25-.6.81.81,0,0,0-.6-.24.82.82,0,0,0-.59.24.86.86,0,0,0-.25.6v3.86a4.13,4.13,0,0,0,6.54,3.33.77.77,0,0,0,.24.53.85.85,0,0,0,1.2,0,.81.81,0,0,0,.24-.59V43.5a.84.84,0,0,0-.84-.84Z"/><path class="cls-3" d="M91.89,51.35a4.24,4.24,0,1,1,2.81-7.41V40.05a.72.72,0,0,1,1.43,0v7.06a4.23,4.23,0,0,1-4.24,4.24Zm0-7.05a2.8,2.8,0,0,0-2.81,2.81,2.81,2.81,0,0,0,4.8,2,2.69,2.69,0,0,0,.82-2,2.8,2.8,0,0,0-2.81-2.81Z"/><path class="cls-3" d="M95.41,39.46a.56.56,0,0,1,.42.18.57.57,0,0,1,.17.41v7.06a4.11,4.11,0,1,1-1.2-2.9l0,0V40.05a.53.53,0,0,1,.17-.41.54.54,0,0,1,.41-.18M91.89,50.05a2.92,2.92,0,1,0-2.08-.86,2.85,2.85,0,0,0,2.08.86m3.52-10.84a.83.83,0,0,0-.59.25.82.82,0,0,0-.24.59v3.63a4.36,4.36,0,1,0,1.67,3.43V40.05a.82.82,0,0,0-.24-.59.84.84,0,0,0-.6-.25ZM91.89,49.8a2.7,2.7,0,1,1,1.9-.79,2.57,2.57,0,0,1-1.9.79Z"/></svg>