<?xml version="1.0" encoding="UTF-8" standalone="no"?>
<!-- Generator: Adobe Illustrator 25.2.1, SVG Export Plug-In . SVG Version: 6.00 Build 0)  -->

<svg
   version="1.1"
   id="Layer_1"
   x="0px"
   y="0px"
   viewBox="0 0 165 100"
   xml:space="preserve"
   sodipodi:docname="logo-light.svg"
   width="165"
   height="100"
   inkscape:version="1.3.2 (1:1.3.2+202311252150+091e20ef0f)"
   xmlns:inkscape="http://www.inkscape.org/namespaces/inkscape"
   xmlns:sodipodi="http://sodipodi.sourceforge.net/DTD/sodipodi-0.dtd"
   xmlns="http://www.w3.org/2000/svg"
   xmlns:svg="http://www.w3.org/2000/svg"><defs
   id="defs10" /><sodipodi:namedview
   id="namedview10"
   pagecolor="#ffffff"
   bordercolor="#000000"
   borderopacity="0.25"
   inkscape:showpageshadow="2"
   inkscape:pageopacity="0.0"
   inkscape:pagecheckerboard="0"
   inkscape:deskcolor="#d1d1d1"
   inkscape:zoom="4.672"
   inkscape:cx="125"
   inkscape:cy="50.085616"
   inkscape:window-width="1850"
   inkscape:window-height="1016"
   inkscape:window-x="0"
   inkscape:window-y="0"
   inkscape:window-maximized="1"
   inkscape:current-layer="Layer_1" />
<style
   type="text/css"
   id="style1">
	.st0{fill:#3DA220;}
	.st1{fill:#21526C;}
	.st2{fill:none;}
	.st3{fill:#878888;}
</style>
<g
   id="g4"
   transform="translate(-44.969533,0.21487719)">
	<polygon
   class="st0"
   points="99.9,5.6 123.6,64.2 136.8,64.2 160.5,5.6 147.3,5.6 130.2,47.9 113.1,5.6 "
   id="polygon1" />
	<polygon
   class="st1"
   points="204,55.3 203.9,55.3 204.9,53 167.5,53 172.5,40.6 196.6,40.6 201.1,29.4 177.1,29.4 182.2,16.8 193.3,16.8 197.9,5.6 186.7,5.6 173.5,5.6 168.9,16.8 169,16.8 149.8,64.2 163,64.2 200.4,64.2 200.4,64 200.5,64 "
   id="polygon2" />
	<g
   id="g3">
		<polygon
   class="st2"
   points="87.7,40.7 80.1,21.9 72.5,40.7 "
   id="polygon3" />
		<path
   class="st1"
   d="m 97.2,64.2 h 13.2 L 86.7,5.6 v 0 0 H 73.5 L 49.8,64.2 H 63 L 68,51.9 H 92.2 Z M 72.5,40.7 80.1,22 87.7,40.7 Z"
   id="path3" />
	</g>
</g>
<g
   id="g10"
   transform="translate(-44.969533,0.21487719)">
	<path
   class="st3"
   d="m 71.1,88.2 v -2 c 1.6,0.7 3.1,1.1 4.5,1.1 2.3,0 3.4,-0.7 3.4,-2 0,-0.5 -0.2,-0.9 -0.6,-1.2 -0.4,-0.3 -1.3,-0.8 -2.8,-1.3 -1.9,-0.7 -3.1,-1.4 -3.6,-2 -0.5,-0.6 -0.7,-1.3 -0.7,-2.1 0,-1.1 0.5,-2 1.4,-2.6 0.9,-0.6 2.2,-1 3.8,-1 1.6,0 3.1,0.3 4.5,0.9 l -0.7,1.8 c -1.5,-0.6 -2.8,-0.9 -3.9,-0.9 -1.9,0 -2.9,0.5 -2.9,1.6 0,0.5 0.2,0.9 0.6,1.2 0.4,0.3 1.4,0.7 2.9,1.2 1.7,0.6 2.9,1.2 3.4,1.9 0.6,0.6 0.9,1.4 0.9,2.2 0,1.2 -0.5,2.2 -1.4,2.9 -1,0.7 -2.3,1 -4.1,1.1 -2.2,0.1 -3.7,-0.2 -4.7,-0.8 z"
   id="path4" />
	<path
   class="st3"
   d="m 85.9,75.3 h 2.3 l 3.2,8 c 0.7,1.7 1,2.9 1.1,3.6 h 0.1 c 0.2,-0.9 0.6,-2.1 1.1,-3.6 l 2.9,-8 h 2.3 l -5.8,15.2 c -0.5,1.4 -1.2,2.5 -1.9,3.2 -0.7,0.7 -1.7,1.1 -3,1.1 -0.7,0 -1.4,-0.1 -2.1,-0.2 v -1.8 c 0.5,0.1 1.1,0.1 1.7,0.1 0.8,0 1.4,-0.2 1.8,-0.5 0.4,-0.3 0.8,-0.9 1.2,-1.7 l 0.7,-1.8 z"
   id="path5" />
	<path
   class="st3"
   d="m 103.8,88.2 v -2 c 1.6,0.7 3.1,1.1 4.5,1.1 2.3,0 3.4,-0.7 3.4,-2 0,-0.5 -0.2,-0.9 -0.6,-1.2 -0.4,-0.3 -1.3,-0.8 -2.8,-1.3 -1.9,-0.7 -3.1,-1.4 -3.6,-2 -0.5,-0.6 -0.7,-1.3 -0.7,-2.1 0,-1.1 0.5,-2 1.4,-2.6 0.9,-0.6 2.2,-1 3.8,-1 1.6,0 3.1,0.3 4.5,0.9 l -0.7,1.8 c -1.5,-0.6 -2.8,-0.9 -3.9,-0.9 -1.9,0 -2.9,0.5 -2.9,1.6 0,0.5 0.2,0.9 0.6,1.2 0.4,0.3 1.4,0.7 2.9,1.2 1.7,0.6 2.9,1.2 3.4,1.9 0.6,0.6 0.9,1.4 0.9,2.2 0,1.2 -0.5,2.2 -1.4,2.9 -1,0.7 -2.3,1 -4.1,1.1 -2.2,0.1 -3.7,-0.2 -4.7,-0.8 z"
   id="path6" />
	<path
   class="st3"
   d="m 130.1,87 v 1.7 c -1.1,0.3 -2.1,0.4 -3.1,0.4 -3,0 -4.4,-1.4 -4.4,-4.2 v -7.8 h -3.3 v -1.2 l 3.3,-0.6 0.9,-3.5 h 1.3 v 3.6 h 5.4 v 1.7 h -5.4 v 7.8 c 0,1.6 0.8,2.4 2.4,2.4 0.7,-0.1 1.7,-0.2 2.9,-0.3 z"
   id="path7" />
	<path
   class="st3"
   d="m 147.4,82.5 h -9.5 c 0.1,3.1 1.5,4.6 4.2,4.6 1.6,0 3.1,-0.3 4.5,-0.9 v 2 c -1.4,0.6 -2.8,0.9 -4.5,0.9 -2,0 -3.6,-0.6 -4.8,-1.8 -1.2,-1.2 -1.8,-2.9 -1.8,-5.1 0,-2.2 0.6,-3.9 1.7,-5.2 1.1,-1.3 2.6,-1.9 4.5,-1.9 1.7,0 3.1,0.5 4.2,1.6 1.1,1.1 1.6,2.6 1.6,4.4 z M 138,80.7 h 7 c 0,-2.5 -1.1,-3.7 -3.3,-3.7 -2.3,-0.1 -3.5,1.2 -3.7,3.7 z"
   id="path8" />
	<path
   class="st3"
   d="m 162.3,88.8 v -8.7 c 0,-1.2 -0.1,-2 -0.3,-2.5 -0.2,-0.5 -0.6,-0.7 -1.1,-0.7 -0.7,0 -1.2,0.3 -1.6,1 -0.4,0.7 -0.5,1.8 -0.5,3.4 v 7.4 h -2 V 80 c 0,-2.1 -0.5,-3.2 -1.5,-3.2 -0.7,0 -1.2,0.3 -1.5,1 -0.3,0.7 -0.4,2 -0.4,3.9 v 7 h -2 V 75.2 h 1.6 l 0.3,1.8 h 0.1 c 0.5,-1.4 1.4,-2.1 2.5,-2.1 1.3,0 2.2,0.7 2.6,2.2 h 0.1 c 0.6,-1.5 1.5,-2.2 2.7,-2.2 1,0 1.8,0.4 2.3,1.1 0.5,0.8 0.7,2 0.7,3.8 v 8.8 z"
   id="path9" />
	<path
   class="st3"
   d="m 169.1,88.2 v -2 c 1.6,0.7 3.1,1.1 4.5,1.1 2.3,0 3.4,-0.7 3.4,-2 0,-0.5 -0.2,-0.9 -0.6,-1.2 -0.4,-0.3 -1.3,-0.8 -2.8,-1.3 -1.9,-0.7 -3.1,-1.4 -3.6,-2 -0.5,-0.6 -0.7,-1.3 -0.7,-2.1 0,-1.1 0.5,-2 1.4,-2.6 0.9,-0.6 2.2,-1 3.8,-1 1.6,0 3.1,0.3 4.5,0.9 l -0.7,1.8 c -1.5,-0.6 -2.8,-0.9 -3.9,-0.9 -1.9,0 -2.9,0.5 -2.9,1.6 0,0.5 0.2,0.9 0.6,1.2 0.4,0.3 1.4,0.7 2.9,1.2 1.7,0.6 2.9,1.2 3.4,1.9 0.5,0.7 0.9,1.4 0.9,2.2 0,1.2 -0.5,2.2 -1.4,2.9 -1,0.7 -2.3,1 -4.1,1.1 -2.1,0 -3.6,-0.2 -4.7,-0.8 z"
   id="path10" />
</g>
</svg>
