<svg width="149" height="17" fill="none" xmlns="http://www.w3.org/2000/svg"><path d="M18.141 16.336H15.39l-.024-10.633-4.785 10.633h-2.97L2.824 6.051 2.8 16.336H.049V.106L0 .013h2.776l6.29 13.198L15.244.013h2.897v16.323ZM36.7 10.293h-6.104l-2.67 6.041H25.15L32.32 0h2.775l6.94 16.334h-2.768l-2.565-6.04Zm-1.039-2.45-1.965-4.628-2.036 4.628h4.001ZM56.23 16.615c-4.32 0-7.656-3.708-7.656-8.303 0-4.596 3.332-8.3 7.889-8.3 4.001 0 6.823 2.795 7.608 6.879h-2.845c-.624-2.333-2.265-4.035-4.787-4.035-3.008 0-5.065 2.423-5.065 5.445 0 3.022 2.057 5.458 5.065 5.458 2.543 0 4.28-1.75 4.881-4.13h2.752c-.603 3.882-3.573 6.986-7.841 6.986ZM85.575 2.682H79.79v13.641H77.04l-.024-13.642H71.21V0h14.364v2.682ZM96.474 2.714v3.662h9.134v2.681h-9.134v4.595h9.595v2.682h-12.35L93.7 0h2.775v.022L106.069 0v2.703l-9.595.011ZM128.468 4.394c0 2.145-1.296 4.663-4.65 4.663h-6.731v7.277h-2.751L114.312 0h2.775v.022L123.818 0c3.47.01 4.65 2.132 4.65 4.394Zm-2.776.092c0-1.089-.764-1.772-2.43-1.772h-6.177v3.662h6.177c1.666 0 2.43-.583 2.43-1.89ZM143.649 10.293h-6.1l-2.659 6.041h-2.775L139.286 0h2.775L149 16.334h-2.784l-2.567-6.04Zm-1.042-2.45-1.966-4.628-2.036 4.628h4.002Z" fill="#000"/></svg>