<?xml version="1.0" encoding="utf-8"?>
<!-- Generator: Adobe Illustrator 25.2.1, SVG Export Plug-In . SVG Version: 6.00 Build 0)  -->
<svg version="1.1"
	 id="Layer_1" sodipodi:docname="menu-bar-icon.svg" xmlns:inkscape="http://www.inkscape.org/namespaces/inkscape" xmlns:sodipodi="http://sodipodi.sourceforge.net/DTD/sodipodi-0.dtd" xmlns:svg="http://www.w3.org/2000/svg"
	 xmlns="http://www.w3.org/2000/svg" xmlns:xlink="http://www.w3.org/1999/xlink" x="0px" y="0px" viewBox="0 0 122.9 103.2"
	 style="enable-background:new 0 0 122.9 103.2;" xml:space="preserve">
<path fill="#ffffff" d="M29.9,30.2H93c3.5,0,6.4,1.6,6.4,3.5l0,0c0,1.9-2.9,3.5-6.4,3.5H29.9c-3.5,0-6.4-1.6-6.4-3.5l0,0
	C23.4,31.8,26.3,30.2,29.9,30.2z M29.9,65.8H93c3.5,0,6.4,1.6,6.4,3.5l0,0c0,1.9-2.9,3.5-6.4,3.5H29.9c-3.5,0-6.4-1.6-6.4-3.5l0,0
	C23.4,67.4,26.3,65.8,29.9,65.8z M29.9,48.1H93c3.5,0,6.4,1.6,6.4,3.5l0,0c0,1.9-2.9,3.5-6.4,3.5H29.9c-3.5,0-6.4-1.6-6.4-3.5l0,0
	C23.4,49.7,26.3,48.1,29.9,48.1z"/>
</svg>
