<?xml version="1.0" encoding="UTF-8"?>
<!DOCTYPE svg PUBLIC "-//W3C//DTD SVG 1.1//EN" "http://www.w3.org/Graphics/SVG/1.1/DTD/svg11.dtd">
<svg xmlns="http://www.w3.org/2000/svg" version="1.1" width="1228px" height="1228px" style="shape-rendering:geometricPrecision; text-rendering:geometricPrecision; image-rendering:optimizeQuality; fill-rule:evenodd; clip-rule:evenodd" xmlns:xlink="http://www.w3.org/1999/xlink">
<g><path style="opacity:0.991" fill="#030706" d="M 577.5,132.5 C 601.836,132.333 626.169,132.5 650.5,133C 658.694,134.536 664.527,139.036 668,146.5C 671.515,168.24 675.348,189.906 679.5,211.5C 688.752,214.794 697.752,218.627 706.5,223C 707.833,223.667 709.167,223.667 710.5,223C 728.509,210.654 746.509,198.321 764.5,186C 772.936,183.356 780.603,184.689 787.5,190C 803.002,205.835 818.835,221.335 835,236.5C 840.304,244.005 841.304,252.005 838,260.5C 824.765,278.065 811.931,295.898 799.5,314C 804.037,323.237 807.87,332.737 811,342.5C 832.769,346.397 854.602,350.23 876.5,354C 883.751,356.519 888.584,361.352 891,368.5C 891.667,392.833 891.667,417.167 891,441.5C 889.062,449.444 884.228,454.944 876.5,458C 854.476,461.503 832.476,465.17 810.5,469C 806.727,478.883 802.393,488.55 797.5,498C 810.494,515.662 823.494,533.329 836.5,551C 839.519,558.745 839.019,566.245 835,573.5C 818.681,588.985 802.515,604.652 786.5,620.5C 778.578,626.964 769.912,628.13 760.5,624C 742.338,611.506 724.171,599.006 706,586.5C 696.715,590.985 687.215,594.985 677.5,598.5C 676.21,600.657 675.376,602.99 675,605.5C 672.082,623.845 669.082,642.179 666,660.5C 663.594,668.573 658.428,674.073 650.5,677C 625.833,677.667 601.167,677.667 576.5,677C 568.255,675.089 562.422,670.256 559,662.5C 555.688,641.067 551.855,619.733 547.5,598.5C 537.371,594.842 527.538,590.509 518,585.5C 499.683,597.827 481.35,610.161 463,622.5C 455.774,625.252 448.608,625.086 441.5,622C 424.428,605.764 407.428,589.264 390.5,572.5C 385.985,565.741 384.818,558.408 387,550.5C 400.657,532.519 413.824,514.186 426.5,495.5C 421.832,486.499 417.998,477.165 415,467.5C 392.269,462.821 369.436,458.321 346.5,454C 340.82,450.651 336.986,445.817 335,439.5C 334.333,415.833 334.333,392.167 335,368.5C 337.248,357.92 343.748,351.753 354.5,350C 374.562,347.159 394.562,343.993 414.5,340.5C 418.131,331.24 422.297,322.24 427,313.5C 427.738,310.788 427.071,308.455 425,306.5C 413.912,290.657 402.578,274.99 391,259.5C 387.2,250.773 387.866,242.44 393,234.5C 409.167,219 425.333,203.5 441.5,188C 449.736,182.063 458.403,181.396 467.5,186C 484.738,198.536 502.238,210.703 520,222.5C 529.514,217.83 539.348,213.83 549.5,210.5C 554.229,188.57 558.729,166.57 563,144.5C 566.515,138.811 571.348,134.811 577.5,132.5 Z M 601.5,322.5 C 644.983,320.15 675.483,338.817 693,378.5C 704.94,426.11 689.107,460.944 645.5,483C 602.473,497.141 567.306,486.308 540,450.5C 527.252,429.733 523.918,407.4 530,383.5C 542.052,349.276 565.886,328.943 601.5,322.5 Z"/></g>
<g><path style="opacity:0.991" fill="#030706" d="M 365.5,676.5 C 392.062,675.23 418.395,677.063 444.5,682C 465.581,688.875 484.248,699.875 500.5,715C 517.528,733.359 534.528,751.693 551.5,770C 557.074,775.248 563.407,779.248 570.5,782C 622.536,795.857 675.536,802.857 729.5,803C 748.551,805.115 764.384,813.282 777,827.5C 786.164,844.458 786.83,861.792 779,879.5C 768.903,893.97 755.07,902.47 737.5,905C 733.152,905.573 728.819,906.24 724.5,907C 676.167,907.667 627.833,907.667 579.5,907C 541.656,903.537 504.323,897.204 467.5,888C 455.637,886.517 447.471,891.35 443,902.5C 441.507,912.035 444.674,919.535 452.5,925C 461.652,928.303 470.985,930.97 480.5,933C 512.849,939.918 545.515,944.918 578.5,948C 627.5,948.667 676.5,948.667 725.5,948C 751.072,946.369 774.072,938.035 794.5,923C 807.691,911.665 817.025,897.831 822.5,881.5C 890.321,837.421 958.321,793.588 1026.5,750C 1038.76,743.913 1051.76,740.413 1065.5,739.5C 1090.38,741.38 1104.05,754.713 1106.5,779.5C 1104.53,800.763 1095.86,818.763 1080.5,833.5C 1073.79,839.874 1066.79,845.874 1059.5,851.5C 946.099,925.197 831.766,997.364 716.5,1068C 706.024,1074.17 695.358,1079.84 684.5,1085C 649.441,1098.27 614.108,1098.94 578.5,1087C 568.363,1083.4 558.363,1079.4 548.5,1075C 489.19,1045.84 430.19,1016.51 371.5,987C 364.152,983.244 356.485,980.244 348.5,978C 341.314,976.945 334.314,977.612 327.5,980C 322.833,982.333 318.167,984.667 313.5,987C 293.474,999.374 273.474,1011.71 253.5,1024C 243.345,1026.62 234.845,1024.12 228,1016.5C 191.883,940.336 156.216,864.003 121,787.5C 118.915,777.845 121.749,770.012 129.5,764C 191.832,734.34 255.498,707.673 320.5,684C 335.502,680.655 350.502,678.155 365.5,676.5 Z"/></g>
<g><path style="opacity:0.967" fill="#030706" d="M 810.5,676.5 C 831.265,675.377 850.598,679.877 868.5,690C 828.032,714.403 787.699,739.069 747.5,764C 723.279,761.475 698.946,760.141 674.5,760C 665.738,759.315 657.071,758.148 648.5,756.5C 684.813,733.674 721.48,711.507 758.5,690C 775.222,682.893 792.555,678.393 810.5,676.5 Z"/></g>
<g><path style="opacity:0.97" fill="#030706" d="M 933.5,705.5 C 950.975,703.555 967.309,706.888 982.5,715.5C 984.849,718.017 987.349,720.35 990,722.5C 990.667,723.167 990.667,723.833 990,724.5C 934.711,760.47 879.211,796.137 823.5,831.5C 817.195,813.077 806.529,797.577 791.5,785C 827.986,762.923 864.32,740.59 900.5,718C 911.123,712.3 922.123,708.134 933.5,705.5 Z"/></g>
</svg>
