<?xml version="1.0" encoding="utf-8"?>
<!-- Svg Vector Icons : http://www.onlinewebfonts.com/icon -->
<!DOCTYPE svg PUBLIC "-//W3C//DTD SVG 1.1//EN" "http://www.w3.org/Graphics/SVG/1.1/DTD/svg11.dtd">
<svg version="1.1" xmlns="http://www.w3.org/2000/svg" xmlns:xlink="http://www.w3.org/1999/xlink" x="0px" y="0px" viewBox="0 0 256 256" enable-background="new 0 0 256 256" xml:space="preserve">
<metadata> Svg Vector Icons : http://www.onlinewebfonts.com/icon </metadata>
<g><g><path fill="#000000" d="M176.8,146.8c-27.3,0-49.6,22.2-49.6,49.6c0,27.3,22.2,49.6,49.6,49.6c27.3,0,49.6-22.2,49.6-49.6C226.3,169.1,204.1,146.8,176.8,146.8z M172.9,218l-24.5-24.6l5.9-5.9l18.6,18.6l29.8-29.8l5.9,5.9L172.9,218z"/><path fill="#000000" d="M119.8,197.1c0-20.4,10.7-38.3,26.7-48.5c0-0.4,0-0.8,0-1.2c0.7-0.6,1.3-1.3,1.6-2.3l0.8-2.8l0.9-0.7c1-0.8,1.6-2,1.8-3.3c0.4-4.4,1.5-10.2,2.6-11.7c3.6-5.6,8.1-17.8,9.6-22c2-1.8,5.5-5.8,5.5-11.8c0-4.9-2.3-8.5-4.3-10.6c1.1-5.2,3.3-16.4,3.3-25c0-27.7-21.4-47.1-52.1-47.1c0,0-0.1,0-0.1,0c0,0-0.1,0-0.1,0c-30.7,0-52.1,19.4-52.1,47.1c0,8.6,2.2,19.9,3.3,25c-2,2.1-4.3,5.7-4.3,10.6c0,6,3.5,10,5.5,11.8c1.5,4.2,6,16.4,9.6,22c1,1.5,2.1,7.3,2.6,11.7c0.1,1.3,0.7,2.5,1.8,3.3l0.9,0.7l0.8,2.8c0.3,0.9,0.9,1.7,1.6,2.3c0.2,8.7-1.1,16-2.7,17c-1.4,0.8-5.9,2-10.3,3.2c-5,1.3-11.1,2.9-17.7,5.1c-23.7,7.9-25.8,18.2-24.9,23.5c1.5,9.3,13.6,15.8,29.4,15.8h52.3h8.8h1.7C120.7,207.1,119.8,202.2,119.8,197.1z"/></g></g>
</svg>